<?xml version="1.0" encoding="UTF-8"?>
<svg id="Layer_1" xmlns="http://www.w3.org/2000/svg" version="1.1" viewBox="0 0 205.79 52.87">
  <!-- Generator: Adobe Illustrator 29.8.7, SVG Export Plug-In . SVG Version: 2.1.1 Build 1)  -->
  <defs>
    <style>
      .st0 {
        fill: #231f20;
      }
    </style>
  </defs>
  <path class="st0" d="M3.88,41.24h-.92v-.92h-.92v-1.85h.92V9.83h.92v-.92h.92v-.92h.92v-.92h.92v-.92h.92v-.92h1.85v.92h1.85v.92h2.77v.92h2.77v1.85h-1.85v.92h-4.62v-.92h-2.77v-1.85h-.92v.92h-.92v11.09h6.47v.92h-.92v.92h-.92v.92h-4.62v14.78h.92v.92h.92v.92h-.92v.92h-.92v.92h-.92v.92h-.92v-.92.02ZM12.19,19.07h.92v.92h-.92v-.92ZM13.12,18.15h.92v.92h-.92v-.92ZM16.81,7.06h.92v.92h-.92v-.92Z"/>
  <path class="st0" d="M15.89,40.32h.92v-.92h.92v-.92h3.69V10.77h.92v-.92h.92v-.92h-6.47v-.92h.92v-.92h.92v-.92h11.08v.92h-.92v.92h-.92v.92h-3.69v27.71h-.92v.92h-.92v.92h6.47v.92h-.92v.92h-.92v.92h-11.09v-.92h0Z"/>
  <path class="st0" d="M35.29,41.24h-.92v-.92h-.92v-1.85h.92V9.83h.92v-.92h.92v-.92h-6.47v-.92h.92v-.92h.92v-.92h11.08v.92h-.92v.92h-.92v.92h-3.7v29.56h.92v.92h.92v.92h-.92v.92h-.92v.92h-.92v.92h-.92v-.92h.01Z"/>
  <path class="st0" d="M40.83,28.31h.92v.92h-.92v-.92ZM51,41.24h-.92v-.92h-.92v-1.85h-.92v-2.77h-.92v-2.77h-.92v-1.85h-.92v-.92h-.92v-.92h-.92v-.92h-1.85v-.92h.92v-.92h.92v-.92h3.69v1.85h.92v1.85h.92v.92h.92v1.85h.92v1.85h.92v1.85h.92v2.77h.92v-12.01h-.92v-.92h-.92v-.92h-.92v-.92h-.92v-.92h-1.85v-.92h-2.77v-11.08h.92v-.92h.92v-.92h.92v-.92h.92v2.77h-.92v10.16h1.85v-.92h.92v-.92h2.77v1.85h.92v.92h.92v.92h.92v.92h.92v.92h.92v1.85h-.92v.92h-.92v10.16h-.92v.92h-.92v.92h-.92v.92h-.92v.92h-.92v.92h-.92v-.96ZM51.92,9.84h-.92v-.92h-.92v-.92h-.92v-.92h.92v-.92h.92v-.92h1.85v.92h1.85v.92h3.7v.92h-1.85v.92h-.92v.92h-.92v.92h-2.77v-.92h-.02ZM58.39,6.14h.92v.92h-.92v-.92Z"/>
  <path class="st0" d="M72.24,41.24h-.92v-.92h-.92v-1.85h.92V9.83h-.92v-.92h-.92v-.92h.92v-.92h.92v-.92h.92v-.92h.92v.92h.92v.92h2.77v-.92h.92v-.92h1.85v.92h2.77v.92h2.77v-.92h.92v-.92h1.85v.92h2.77v.92h2.77v.92h-.92v.92h-.92v.92h-.92v27.71h.92v.92h.92v.92h-.92v.92h-.92v.92h-.92v.92h-.92v-.92h-.92v-.92h-.92v-1.85h.92V10.74h-.92v-.92h-.92v-.92h-1.85v-.92h-.92v1.85h-.92v12.01h4.62v.92h-.92v.92h-1.85v.92h-1.85v12.93h.92v.92h.92v.92h-.92v.92h-.92v.92h-.92v.92h-.92v-.92h-.92v-.92h-.92v-1.85h.92v-13.86h-4.62v-.92h.92v-.92h1.85v-.92h1.85v-11.08h-.92v-.92h-.92v-.92h-1.85v-.92h-.92v.92h-.92v28.64h.92v.92h.92v.92h-.92v.92h-.92v.92h-.92v.92h-.92v-.92l-.05.02ZM93.49,6.14h.92v.92h-.92v-.92Z"/>
  <path class="st0" d="M97.19,41.24h-.92v-.92h-.92v-1.85h.92V10.76h.92v-.92h.92v-.92h.92v14.78h.92v-.92h1.85v-.92h2.77v-11.08h-.92v-.92h-2.77v-.92h-1.85v-1.85h.92v-.92h.92v-.92h2.77v.92h1.85v.92h1.85v30.48h.92v.92h.92v.92h-.92v.92h-.92v.92h-.92v.92h-.92v-.92h-.92v-.92h-.92v-1.85h.92v-15.7h-.92v.92h-1.85v.92h-2.77v12.93h.92v.92h.92v.92h-.92v.92h-.92v.92h-.92v.92h-.92v-.92h-.01Z"/>
  <path class="st0" d="M119.36,50.48h-.92v-.92h-.92v-.92h-1.85v-.92h-5.54v-.92h.92v-.92h.92v-.92h.92v-.92h.92v.92h6.47v.92h.92v.92h.92v.92h.92v.92h-.92v.92h-.92v.92h-.92v.92h-.92v-.92ZM123.98,45.86h-.92v-.92h-.92v-.92h-.92v-7.39h-.92v-.92h.92V10.77h-.92v-.92h-2.77v-.92h-1.85v27.71h.92v.92h2.77v.92h-.92v1.85h-.92v.92h-.92v.92h-.92v.92h-.92v-1.85h-.92v-.92h-.92v-.92h-.92v-1.85h.92V9.84h.92v-.92h.92v-.92h.92v-.92h.92v-.92h.92v-.92h1.85v.92h2.77v.92h2.77v.92h.92v.92h-.92v.92h-.92v31.41h.92v.92h.92v.92h1.85v.92h-.92v.92h-.92v.92h-.92v.92h-.92v-.92h-.03ZM113.82,43.09h.92v.92h-.92v-.92ZM119.36,36.62h.92v.92h-.92v-.92ZM123.98,47.71h-.92v-.92h.92v.92ZM125.83,7.06h.92v.92h-.92v-.92Z"/>
  <path class="st0" d="M130.45,41.24h-.92v-.92h-.92v-1.85h.92V10.76h.92v-.92h.92v-.92h.92v14.78h.92v-.92h1.85v-.92h2.77v-11.08h-.92v-.92h-2.77v-.92h-1.85v-1.85h.92v-.92h.92v-.92h2.77v.92h1.85v.92h1.85v30.48h.92v.92h.92v.92h-.92v.92h-.92v.92h-.92v.92h-.92v-.92h-.92v-.92h-.92v-1.85h.92v-15.7h-.92v.92h-1.85v.92h-2.77v12.93h.92v.92h.92v.92h-.92v.92h-.92v.92h-.92v.92h-.92v-.92h-.01Z"/>
  <path class="st0" d="M151.69,50.48h-.92v-.92h-.92v-.92h-1.85v-.92h-5.54v-.92h.92v-.92h.92v-.92h.92v-.92h.92v.92h6.47v.92h.92v.92h.92v.92h.92v.92h-.92v.92h-.92v.92h-.92v.92h-.92v-.92ZM143.38,10.76h.92v.92h-.92v-.92ZM144.31,9.84h.92v.92h-.92v-.92ZM156.31,45.86h-.92v-.92h-.92v-.92h-.92v-6.47h-.92v-.92h.92v-18.48h-9.24v-.92h.92v-.92h.92v-.92h.92v-.92h.92v.92h8.31v25.87h.92v.92h.92v.92h1.85v.92h-.92v.92h-.92v.92h-.92v.92h-.92v-.92h0ZM145.23,8.91h.92v.92h-.92v-.92ZM152.62,8.91h-6.47v-.92h.92v-.92h.92v-.92h8.31v.92h-.92v.92h-.92v.92h-.92v.92h-.92v-.92ZM146.15,43.09h.92v.92h-.92v-.92ZM147.08,42.17h.92v.92h-.92v-.92ZM148,13.53h.92v.92h-.92v-.92ZM148,41.24h.92v.92h-.92v-.92ZM148.92,12.61h.92v.92h-.92v-.92ZM148.92,40.32h.92v.92h-.92v-.92ZM149.85,11.68h.92v.92h-.92v-.92ZM149.85,39.4h.92v.92h-.92v-.92ZM150.77,10.76h.92v.92h-.92v-.92ZM150.77,38.47h.92v.92h-.92v-.92ZM151.69,9.84h.92v.92h-.92v-.92ZM151.69,37.55h.92v.92h-.92v-.92ZM156.31,47.71h-.92v-.92h.92v.92Z"/>
  <path class="st0" d="M159.09,40.32h.92v-.92h.92v-.92h3.7V10.77h.92v-.92h.92v-.92h-6.47v-.92h.92v-.92h.92v-.92h11.08v.92h-.92v.92h-.92v.92h-3.7v27.71h-.92v.92h-.92v.92h6.47v.92h-.92v.92h-.92v.92h-11.08v-.92Z"/>
  <path class="st0" d="M176.64,41.24h-.92v-.92h-.92v-1.85h.92V9.83h-.92v-.92h-.92v-.92h.92v-.92h.92v-.92h.92v-.92h.92v.92h.92v.92h2.77v-.92h.92v-.92h1.85v.92h2.77v.92h2.77v.92h-.92v.92h-.92v.92h-.92v27.71h.92v.92h.92v.92h-.92v.92h-.92v.92h-.92v.92h-.92v-.92h-.92v-.92h-.92v-1.85h.92V10.74h-.92v-.92h-.92v-.92h-1.85v-.92h-.92v.92h-.92v28.64h.92v.92h.92v.92h-.92v.92h-.92v.92h-.92v.92h-.92v-.92l-.03.02ZM189.57,6.14h.92v.92h-.92v-.92Z"/>
  <path class="st0" d="M196.96,41.24h-.92v-.92h-3.7v-.92h-1.85v-.92h.92v-.92h.92V9.85h.92v-.92h.92v-.92h.92v-.92h.92v-.92h.92v-.92h1.85v.92h.92v2.77h.92v1.85h.92v2.77h.92v1.85h.92v1.85h-.92v.92h-.92v.92h-.92v.92h-.92v-1.85h-.92v-3.69h-.92v-2.77h-.92v-1.85h-.92v-.92h-.92v14.78h.92v.92h-.92v12.01h1.85v.92h2.77v.92h2.77v.92h-.92v.92h-1.85v.92h-.92v.92h-1.85v-.92h0ZM196.04,22.77h.92v.92h-.92v-.92ZM196.96,21.84h.92v.92h-.92v-.92ZM197.89,20.92h.92v.92h-.92v-.92ZM198.81,20h.92v.92h-.92v-.92ZM202.51,37.55h.92v.92h-.92v-.92ZM203.43,36.62h.92v.92h-.92v-.92Z"/>
</svg>